<?xml version="1.0" encoding="utf-8"?>
<!-- Generator: Adobe Illustrator 23.0.1, SVG Export Plug-In . SVG Version: 6.00 Build 0)  -->
<svg version="1.1" id="Layer_1" xmlns="http://www.w3.org/2000/svg" xmlns:xlink="http://www.w3.org/1999/xlink" x="0px" y="0px"
	 viewBox="0 0 20 20" style="width:20px;height:20px;enable-background:new 0 0 20 20;" xml:space="preserve">
<style type="text/css">
	.st0{fill:#ccc;}
</style>
<path class="st0" d="M15,20H5c-0.55,0-1-0.45-1-1V7c0-0.55,0.45-1,1-1h10c0.55,0,1,0.45,1,1v12C16,19.55,15.55,20,15,20z M17,2h-4
	l-1-2H8L7,2H3C2.45,2,2,2.45,2,3c0,0.55,0.45,1,1,1h14c0.55,0,1-0.45,1-1C18,2.45,17.55,2,17,2z"/>
</svg>
