<?xml version="1.0" encoding="utf-8"?>
<!-- Generator: Adobe Illustrator 23.0.1, SVG Export Plug-In . SVG Version: 6.00 Build 0)  -->
<svg version="1.1" id="Layer_1" xmlns="http://www.w3.org/2000/svg" xmlns:xlink="http://www.w3.org/1999/xlink" x="0px" y="0px"
	 viewBox="0 0 20 20" style="width:20px;height:20px;enable-background:new 0 0 20 20;" xml:space="preserve">
<style type="text/css">
	.st0{fill:#5d5d5d;}
</style>
<g>
	<path class="st0" d="M7,9h1v1H7v1H6v-1H5V9h1V8h1V9z M13.5,8C14.33,8,15,8.67,15,9.5S14.33,11,13.5,11S12,10.33,12,9.5
		S12.67,8,13.5,8z M19.06,5.26c-0.04-0.18-0.13-0.33-0.26-0.45C18.26,4.3,16.81,3,16,3c-0.29,0-0.65-0.02-1.05-0.02
		C13.97,2.98,12.79,3.11,12,4h-2H8C7.21,3.11,6.03,2.98,5.05,2.98C4.65,2.98,4.29,3,4,3C3.19,3,1.74,4.3,1.2,4.8
		C1.07,4.93,0.98,5.08,0.94,5.26C0.72,6.19,0,9.45,0,12c0,2,0,5,2,5s3-2,5-2h3h3c2,0,3,2,5,2s2-3,2-5C20,9.45,19.28,6.19,19.06,5.26
		z M17.86,13.92c-0.05,0.49-0.57,0.77-1,0.53C15.81,13.86,14.07,13,13,13h-3H7c-1.07,0-2.81,0.86-3.86,1.45
		c-0.43,0.24-0.95-0.05-1-0.53C2.07,13.22,2,12.36,2,12c0-2.09,0.55-4.81,0.81-5.96C3.33,5.57,3.9,5.14,4.19,5
		c0.1,0,0.66-0.02,0.86-0.02c0.77,0,1.25,0.11,1.45,0.34L7.1,6H10h2.9l0.6-0.68c0.2-0.23,0.68-0.34,1.45-0.34
		c0.2,0,0.76,0.02,0.86,0.02c0.29,0.14,0.86,0.57,1.38,1.04C17.45,7.19,18,9.91,18,12C18,12.36,17.93,13.22,17.86,13.92z"/>
</g>
</svg>
