<?xml version="1.0" encoding="utf-8"?>
<!-- Generator: Adobe Illustrator 23.0.1, SVG Export Plug-In . SVG Version: 6.00 Build 0)  -->
<svg version="1.1" id="Layer_1" xmlns="http://www.w3.org/2000/svg" xmlns:xlink="http://www.w3.org/1999/xlink" x="0px" y="0px"
	 viewBox="0 0 20 20" style="width:20px;height:20px;enable-background:new 0 0 20 20;" xml:space="preserve">
<style type="text/css">
	.st0{fill:#ccc;}
</style>
<g>
	<path class="st0" d="M3.31,12.31C3.12,12.13,3,11.87,3,11.59c0-0.55,0.45-1,1-1c0.29,0,0.54,0.12,0.72,0.32L9,15.17V2
		c0-0.55,0.45-1,1-1c0.55,0,1,0.45,1,1v13.17l4.28-4.27c0.18-0.19,0.44-0.31,0.72-0.31c0.55,0,1,0.45,1,1
		c0,0.28-0.12,0.54-0.31,0.72L10,19L3.31,12.31z"/>
</g>
</svg>
