<?xml version="1.0" encoding="utf-8"?>
<!-- Generator: Adobe Illustrator 23.0.1, SVG Export Plug-In . SVG Version: 6.00 Build 0)  -->
<svg version="1.1" id="Layer_1" xmlns="http://www.w3.org/2000/svg" xmlns:xlink="http://www.w3.org/1999/xlink" x="0px" y="0px"
	 viewBox="0 0 20 20" style="width:20px;height:20px;enable-background:new 0 0 20 20;" xml:space="preserve">
<style type="text/css">
	.st0{fill:#ccc;}
</style>
<g>
	<path class="st0" d="M16.68,7.69C16.88,7.87,17,8.13,17,8.41c0,0.55-0.45,1-1,1c-0.29,0-0.54-0.12-0.72-0.32L11,4.83L11,18
		c0,0.55-0.45,1-1,1c-0.55,0-1-0.45-1-1L9,4.83L4.72,9.1C4.54,9.29,4.29,9.41,4,9.41c-0.55,0-1-0.45-1-1C3,8.13,3.12,7.88,3.31,7.7
		L10,1L16.68,7.69z"/>
</g>
</svg>
