<?xml version="1.0" encoding="utf-8"?>
<!-- Generator: Adobe Illustrator 23.0.1, SVG Export Plug-In . SVG Version: 6.00 Build 0)  -->
<svg version="1.1" id="Layer_1" xmlns="http://www.w3.org/2000/svg" xmlns:xlink="http://www.w3.org/1999/xlink" x="0px" y="0px"
	 viewBox="0 0 20 20" style="width:20px;height:20px;enable-background:new 0 0 20 20;" xml:space="preserve">
<style type="text/css">
	.st0{fill:#5d5d5d;}
</style>
<path class="st0" d="M17,7.18V1c0-0.55-0.45-1-1-1s-1,0.45-1,1v6.18c-1.17,0.4-2,1.51-2,2.82s0.83,2.42,2,2.82V19c0,0.55,0.45,1,1,1
	s1-0.45,1-1v-6.18c1.17-0.4,2-1.51,2-2.82S18.17,7.58,17,7.18z M16,11c-0.55,0-1-0.45-1-1s0.45-1,1-1s1,0.45,1,1S16.55,11,16,11z
	 M11,7.18V1c0-0.55-0.45-1-1-1S9,0.45,9,1v6.18C7.83,7.58,7,8.69,7,10s0.83,2.42,2,2.82V19c0,0.55,0.45,1,1,1s1-0.45,1-1v-6.18
	c1.17-0.4,2-1.51,2-2.82S12.17,7.58,11,7.18z M10,11c-0.55,0-1-0.45-1-1s0.45-1,1-1s1,0.45,1,1S10.55,11,10,11z M5,7.18V1
	c0-0.55-0.45-1-1-1S3,0.45,3,1v6.18C1.83,7.58,1,8.69,1,10s0.83,2.42,2,2.82V19c0,0.55,0.45,1,1,1s1-0.45,1-1v-6.18
	c1.17-0.4,2-1.51,2-2.82S6.17,7.58,5,7.18z M4,11c-0.55,0-1-0.45-1-1s0.45-1,1-1s1,0.45,1,1S4.55,11,4,11z"/>
</svg>
