<?xml version="1.0" encoding="utf-8"?>
<!-- Generator: Adobe Illustrator 23.0.1, SVG Export Plug-In . SVG Version: 6.00 Build 0)  -->
<svg version="1.1" id="Layer_1" xmlns="http://www.w3.org/2000/svg" xmlns:xlink="http://www.w3.org/1999/xlink" x="0px" y="0px"
	 viewBox="0 0 20 20" style="width:20px;height:20px;enable-background:new 0 0 20 20;" xml:space="preserve">
<style type="text/css">
	.st0{fill:rgba(68,214,44,0.5);}
</style>
<g>
	<path class="st0" d="M19,0H1v20h18V0L19,0z M15,6V2h2v4H15L15,6z M7,18V2h6v16H7L7,18z M3,6V2h2v4H3L3,6z M15,12V8h2v4H15L15,12z
		 M3,12V8h2v4H3L3,12z M15,18v-4h2v4H15L15,18z M3,18v-4h2v4H3L3,18z"/>
</g>
</svg>
