<?xml version="1.0" encoding="utf-8"?>
<!-- Generator: Adobe Illustrator 23.0.1, SVG Export Plug-In . SVG Version: 6.00 Build 0)  -->
<svg version="1.1" id="Layer_1" xmlns="http://www.w3.org/2000/svg" xmlns:xlink="http://www.w3.org/1999/xlink" x="0px" y="0px"
	 viewBox="0 0 20 20" style="width:20px;height:20px;enable-background:new 0 0 20 20;" xml:space="preserve">
<style type="text/css">
	.st0{fill-rule:evenodd;clip-rule:evenodd;fill:rgba(68,214,44,0.5);}
</style>
<g id="Android_1_">
	<g id="dolby_advanced_menu_1_" transform="translate(-271.000000, -257.000000)">
		<path id="music" class="st0" d="M289,263h-10v11c0,1.66-1.57,3-3.5,3s-3.5-1.34-3.5-3s1.57-3,3.5-3c0.54,0,1.05,0.1,1.5,0.29V259
			c0-1.1,0.9-2,2-2h10c1.1,0,2,0.9,2,2v13c0,1.66-1.57,3-3.5,3s-3.5-1.34-3.5-3s1.57-3,3.5-3c0.54,0,1.05,0.1,1.5,0.29V263z
			 M289,261v-2h-10v2H289z"/>
	</g>
</g>
</svg>
