<?xml version="1.0" encoding="utf-8"?>
<!-- Generator: Adobe Illustrator 23.0.1, SVG Export Plug-In . SVG Version: 6.00 Build 0)  -->
<svg version="1.1" id="Layer_1" xmlns="http://www.w3.org/2000/svg" xmlns:xlink="http://www.w3.org/1999/xlink" x="0px" y="0px"
	 viewBox="0 0 20 20" style="width:20px;height:20px;enable-background:new 0 0 20 20;" xml:space="preserve">
<style type="text/css">
	.st0{fill:rgba(68,214,44,0.5);}
</style>
<path class="st0" d="M17,12.18V1c0-0.55-0.45-1-1-1s-1,0.45-1,1v11.18c-1.17,0.4-2,1.51-2,2.82s0.83,2.42,2,2.82V19
	c0,0.55,0.45,1,1,1s1-0.45,1-1v-1.18c1.17-0.4,2-1.51,2-2.82S18.17,12.58,17,12.18z M16,16c-0.55,0-1-0.45-1-1s0.45-1,1-1
	s1,0.45,1,1S16.55,16,16,16z M11,2.18V1c0-0.55-0.45-1-1-1S9,0.45,9,1v1.18C7.83,2.58,7,3.69,7,5s0.83,2.42,2,2.82V19
	c0,0.55,0.45,1,1,1s1-0.45,1-1V7.82c1.17-0.4,2-1.51,2-2.82S12.17,2.58,11,2.18z M10,6C9.45,6,9,5.55,9,5s0.45-1,1-1s1,0.45,1,1
	S10.55,6,10,6z M5,8.18V1c0-0.55-0.45-1-1-1S3,0.45,3,1v7.18C1.83,8.58,1,9.69,1,11s0.83,2.42,2,2.82V19c0,0.55,0.45,1,1,1
	s1-0.45,1-1v-5.18c1.17-0.4,2-1.51,2-2.82S6.17,8.58,5,8.18z M4,12c-0.55,0-1-0.45-1-1s0.45-1,1-1s1,0.45,1,1S4.55,12,4,12z"/>
</svg>
